<svg width="63" height="18" viewBox="0 0 63 18" fill="none" xmlns="http://www.w3.org/2000/svg">
<path d="M0.65 13.1C0.65 15.622 2.678 17.338 5.876 17.338C9.048 17.338 11.258 15.726 11.258 13.126C11.258 11.15 10.166 10.162 8.008 9.668L5.694 9.122C4.602 8.862 4.03 8.394 4.03 7.666C4.03 6.704 4.758 6.132 6.006 6.132C7.228 6.132 7.956 6.834 7.982 7.926H10.998C10.972 5.43 9.022 3.766 6.136 3.766C3.172 3.766 1.04 5.274 1.04 7.796C1.04 9.85 2.158 10.942 4.472 11.462L6.786 12.008C7.93 12.268 8.268 12.736 8.268 13.386C8.268 14.322 7.462 14.92 5.98 14.92C4.524 14.92 3.692 14.218 3.666 13.1H0.65ZM19.4192 17.338C22.7732 17.338 25.1132 15.648 25.6592 12.84H22.7212C22.3572 14.062 21.2132 14.738 19.4712 14.738C17.3652 14.738 16.1692 13.594 15.9352 11.332L25.6072 11.306V10.344C25.6072 6.34 23.1632 3.766 19.3152 3.766C15.5452 3.766 12.9192 6.548 12.9192 10.578C12.9192 14.556 15.5972 17.338 19.4192 17.338ZM19.3412 6.366C21.2392 6.366 22.4612 7.536 22.4612 9.304H16.0132C16.3252 7.38 17.4692 6.366 19.3412 6.366ZM31.8409 17.338C33.8429 17.338 35.5849 16.428 36.1309 15.102L36.3649 17H39.1469V9.2C39.1469 5.638 37.0149 3.766 33.5569 3.766C30.0729 3.766 27.7849 5.586 27.7849 8.368H30.4889C30.4889 7.016 31.5289 6.236 33.4009 6.236C35.0129 6.236 36.0529 6.938 36.0529 8.68V8.966L32.2049 9.252C29.1629 9.486 27.4469 10.968 27.4469 13.334C27.4469 15.752 29.1109 17.338 31.8409 17.338ZM32.8809 14.946C31.4509 14.946 30.6709 14.374 30.6709 13.204C30.6709 12.164 31.4249 11.514 33.4009 11.332L36.0789 11.124V11.8C36.0789 13.776 34.8309 14.946 32.8809 14.946ZM46.4533 17V6.808H48.9493V4.156H46.4533V0.152H43.2813V4.156H40.8113V6.808H43.2813V17H46.4533Z" fill="black"/>
<path d="M53.1572 17L55.8612 12.762L58.5912 17H62.2312L57.9932 10.656L62.3612 4.156H58.7992L56.0692 8.524L53.2352 4.156H49.5432L53.9632 10.708L49.5432 17H53.1572Z" fill="#1E9531"/>
</svg>
