<svg width="17" height="17" viewBox="0 0 17 17" fill="none" xmlns="http://www.w3.org/2000/svg">
<circle cx="8.5" cy="8.5" r="8.5" fill="#0A7848"/>
<path d="M9.228 11.186V10.892C9.228 10.206 9.774 9.78597 10.418 9.35197C11.216 8.80597 12.21 8.09197 12.21 6.56597C12.21 4.60597 10.894 3.44397 8.696 3.44397C6.512 3.44397 5 4.91397 5 7.05597H7.254C7.254 6.07597 7.786 5.45997 8.64 5.45997C9.438 5.45997 9.886 5.92197 9.886 6.71997C9.886 7.40597 9.382 7.82597 8.808 8.28797C8.094 8.86197 7.282 9.53397 7.282 10.892V11.186H9.228ZM8.318 14.182C9.018 14.182 9.606 13.594 9.606 12.922C9.606 12.236 9.018 11.648 8.318 11.648C7.604 11.648 7.03 12.222 7.03 12.922C7.03 13.608 7.604 14.182 8.318 14.182Z" fill="white"/>
</svg>
