<svg width="14" height="14" viewBox="0 0 14 14" fill="none" xmlns="http://www.w3.org/2000/svg">
<path d="M8.68322 2.18246L8.68316 2.1824C7.79621 1.29467 6.70936 0.85 5.43182 0.85C4.15427 0.85 3.06763 1.29467 2.18113 2.18243C1.2942 3.07062 0.85 4.15893 0.85 5.43812C0.85 6.71732 1.2942 7.80562 2.18113 8.69381C3.06763 9.58158 4.15427 10.0262 5.43182 10.0262C5.94804 10.0262 6.43689 9.94395 6.89733 9.77842C7.30972 9.63018 7.68091 9.43357 8.00993 9.18809L11.7348 12.9182C11.8906 13.0743 12.0892 13.15 12.3182 13.15C12.5471 13.15 12.7457 13.0743 12.9016 12.9182C13.0642 12.7554 13.15 12.5587 13.15 12.3343C13.15 12.1138 13.0726 11.9216 12.9186 11.7674L9.17651 8.01995C9.42174 7.69039 9.61813 7.31859 9.7662 6.90552C9.93147 6.44449 10.0136 5.95501 10.0136 5.43812C10.0136 4.15895 9.56968 3.07066 8.68322 2.18246ZM8.35 5.43812C8.35 6.25237 8.06724 6.9397 7.49927 7.5089C6.9309 8.07761 6.24468 8.36067 5.43182 8.36067C4.61896 8.36067 3.93274 8.07761 3.36436 7.5089C2.7964 6.9397 2.51364 6.25237 2.51364 5.43812C2.51364 4.62392 2.79637 3.93661 3.36428 3.36742C3.93267 2.79866 4.61892 2.51558 5.43182 2.51558C6.24471 2.51558 6.93097 2.79866 7.49935 3.36742C8.06726 3.93661 8.35 4.62392 8.35 5.43812Z" fill="white" stroke="white" stroke-width="0.3"/>
</svg>
